<?xml version="1.0" encoding="UTF-8"?>
<svg version="1.1" xmlns="http://www.w3.org/2000/svg" width="119" height="112">
<path d="M0 0 C6.51411678 4.63202847 10.66544119 9.76115876 14 17 C14.5775 16.21625 15.155 15.4325 15.75 14.625 C17.97969583 12.0236882 18.87245145 11.14113258 22 10 C25.453125 9.8046875 25.453125 9.8046875 29.25 9.875 C30.51328125 9.89304687 31.7765625 9.91109375 33.078125 9.9296875 C34.04234375 9.95289063 35.0065625 9.97609375 36 10 C36 11.32 36 12.64 36 14 C35.34 14 34.68 14 34 14 C33.773125 15.051875 33.54625 16.10375 33.3125 17.1875 C32.14833936 21.20914585 30.3094336 23.367496 27 26 C23.6875 27.3125 23.6875 27.3125 21 28 C21.66 28.66 22.32 29.32 23 30 C23.125 33.625 23.125 33.625 23 37 C22.01 37.495 22.01 37.495 21 38 C20.60740407 40.78466652 20.60740407 40.78466652 20.5 44 C20.34375 47.3125 20.34375 47.3125 20 50 C17.59765695 51.20117153 15.98908733 51.06761528 13.3125 51.125 C8.03784318 51.58596571 6.16097823 53.32355712 2.7890625 57.21484375 C-2.69044953 62.68239178 -10.81869214 64.14347566 -18.25 64.1875 C-23.53145657 64.15772854 -27.97386771 63.57682582 -33 62 C-33 61.34 -33 60.68 -33 60 C-33.721875 59.773125 -34.44375 59.54625 -35.1875 59.3125 C-38.56432417 57.73664872 -40.55767039 55.79123384 -43 53 C-43 52.34 -43 51.68 -43 51 C-43.515625 51.185625 -44.03125 51.37125 -44.5625 51.5625 C-47.90884154 52.16312541 -50.68637251 51.67499819 -54 51 C-56.98003509 48.01996491 -56.5168044 44.63834064 -56.6875 40.625 C-56.72584961 39.79170166 -56.76419922 38.95840332 -56.80371094 38.09985352 C-57.04457459 31.70325417 -57.00038134 25.3330216 -56.75 18.9375 C-56.72381592 18.07527832 -56.69763184 17.21305664 -56.6706543 16.32470703 C-56.546875 13.90234375 -56.546875 13.90234375 -56 10 C-52.71508627 7.81005752 -51.16904361 7.64722661 -47.3125 7.375 C-46.31863281 7.30023438 -45.32476562 7.22546875 -44.30078125 7.1484375 C-43.54152344 7.09945312 -42.78226563 7.05046875 -42 7 C-42 6.34 -42 5.68 -42 5 C-31.1149591 -5.6477648 -13.11508324 -7.98602839 0 0 Z " fill="#277445" transform="translate(73,26)"/>
<path d="M0 0 C6.51411678 4.63202847 10.66544119 9.76115876 14 17 C14.5775 16.21625 15.155 15.4325 15.75 14.625 C17.97969583 12.0236882 18.87245145 11.14113258 22 10 C25.453125 9.8046875 25.453125 9.8046875 29.25 9.875 C30.51328125 9.89304687 31.7765625 9.91109375 33.078125 9.9296875 C34.04234375 9.95289063 35.0065625 9.97609375 36 10 C36 11.32 36 12.64 36 14 C35.34 14 34.68 14 34 14 C33.773125 15.051875 33.54625 16.10375 33.3125 17.1875 C32.14833936 21.20914585 30.3094336 23.367496 27 26 C23.6875 27.3125 23.6875 27.3125 21 28 C21.66 28.66 22.32 29.32 23 30 C23.125 33.625 23.125 33.625 23 37 C22.34 36.67 21.68 36.34 21 36 C21.020625 35.195625 21.04125 34.39125 21.0625 33.5625 C21.29633621 31.06645115 21.29633621 31.06645115 20 30 C18.48530552 29.76807135 16.96245438 29.58784762 15.4375 29.4375 C14.61121094 29.35371094 13.78492187 29.26992188 12.93359375 29.18359375 C12.29550781 29.12300781 11.65742187 29.06242187 11 29 C10.87044922 28.05640625 10.87044922 28.05640625 10.73828125 27.09375 C9.30052852 18.33532969 6.04527348 11.87757563 -1 6.3203125 C-8.49143058 1.37479778 -16.10597899 -0.19865512 -25 1 C-30.42434036 2.60599805 -34.79351616 5.20059524 -39 9 C-37.68 9.66 -36.36 10.32 -35 11 C-35.33 11.66 -35.66 12.32 -36 13 C-35.01 13.33 -34.02 13.66 -33 14 C-32.1507201 18.05767064 -32.07993026 20.97469488 -33 25 C-32.67 25.33 -32.34 25.66 -32 26 C-31.67 21.38 -31.34 16.76 -31 12 C-26 12 -26 12 -24.1875 13.0625 C-22.39614028 15.98524481 -22.88188143 18.63362077 -23 22 C-22.57145005 24.31036915 -22.57145005 24.31036915 -22 26 C-23.98 27.32 -25.96 28.64 -28 30 C-27.01 30.515625 -26.02 31.03125 -25 31.5625 C-22 34 -22 34 -21.625 37.5 C-21.810625 39.2325 -21.810625 39.2325 -22 41 C-22 42.32 -22 43.64 -22 45 C-22 45.99 -22 46.98 -22 48 C-22.66 48 -23.32 48 -24 48 C-24.495 46.02 -24.495 46.02 -25 44 C-25.66 44 -26.32 44 -27 44 C-27 45.32 -27 46.64 -27 48 C-28.485 47.505 -28.485 47.505 -30 47 C-30.33 43.04 -30.66 39.08 -31 35 C-31 39.29 -31 43.58 -31 48 C-31.99 48 -32.98 48 -34 48 C-34.33 47.01 -34.66 46.02 -35 45 C-36.485 44.505 -36.485 44.505 -38 44 C-38 45.32 -38 46.64 -38 48 C-38.99 48 -39.98 48 -41 48 C-40.67 43.38 -40.34 38.76 -40 34 C-40.66 34 -41.32 34 -42 34 C-42 38.62 -42 43.24 -42 48 C-43.32 48 -44.64 48 -46 48 C-46 46.68 -46 45.36 -46 44 C-46.99 44 -47.98 44 -49 44 C-49 45.32 -49 46.64 -49 48 C-49.99 48 -50.98 48 -52 48 C-52 42.72 -52 37.44 -52 32 C-51.34 32 -50.68 32 -50 32 C-49.67 34.97 -49.34 37.94 -49 41 C-48.34 41 -47.68 41 -47 41 C-47.01160156 40.28972656 -47.02320313 39.57945313 -47.03515625 38.84765625 C-47.04869141 37.46900391 -47.04869141 37.46900391 -47.0625 36.0625 C-47.07410156 35.14597656 -47.08570313 34.22945312 -47.09765625 33.28515625 C-47 31 -47 31 -46 30 C-46.99 29.67 -47.98 29.34 -49 29 C-51.48110416 26.57094698 -51.97617493 25.26302875 -52.29296875 21.765625 C-52.25816406 20.60546875 -52.22335938 19.4453125 -52.1875 18.25 C-52.14689453 16.49429688 -52.14689453 16.49429688 -52.10546875 14.703125 C-52.07066406 13.81109375 -52.03585938 12.9190625 -52 12 C-51.01 12 -50.02 12 -49 12 C-48.95101562 12.85464844 -48.90203125 13.70929687 -48.8515625 14.58984375 C-48.77679688 15.69457031 -48.70203125 16.79929687 -48.625 17.9375 C-48.55539063 19.03964844 -48.48578125 20.14179687 -48.4140625 21.27734375 C-48.27742188 22.17582031 -48.14078125 23.07429688 -48 24 C-47.34 24.33 -46.68 24.66 -46 25 C-46 20.05 -46 15.1 -46 10 C-48.64 10 -51.28 10 -54 10 C-53.85834107 12.39614575 -53.71181159 14.79182897 -53.5625 17.1875 C-53.52318359 17.86103516 -53.48386719 18.53457031 -53.44335938 19.22851562 C-53.21072435 22.89699102 -52.82792989 26.41694206 -52 30 C-52.99 30 -53.98 30 -55 30 C-55 36.27 -55 42.54 -55 49 C-55.33 49 -55.66 49 -56 49 C-56.73823615 38.95998838 -57.16127641 29.00319116 -56.75 18.9375 C-56.71048218 17.64440918 -56.71048218 17.64440918 -56.67016602 16.32519531 C-56.546875 13.90234375 -56.546875 13.90234375 -56 10 C-52.71508627 7.81005752 -51.16904361 7.64722661 -47.3125 7.375 C-46.31863281 7.30023438 -45.32476562 7.22546875 -44.30078125 7.1484375 C-43.54152344 7.09945312 -42.78226563 7.05046875 -42 7 C-42 6.34 -42 5.68 -42 5 C-31.1149591 -5.6477648 -13.11508324 -7.98602839 0 0 Z " fill="#307A4D" transform="translate(73,26)"/>
<path d="M0 0 C2.64 0 5.28 0 8 0 C8 4.95 8 9.9 8 15 C7.01 14.67 6.02 14.34 5 14 C5 10.04 5 6.08 5 2 C4.01 2 3.02 2 2 2 C2.11443603 4.0839403 2.24195547 6.16716493 2.375 8.25 C2.44460937 9.41015625 2.51421875 10.5703125 2.5859375 11.765625 C2.96447154 14.7224758 3.35001746 16.54859737 5 19 C7.05000871 19.80528889 7.05000871 19.80528889 9 20 C8.67 20.33 8.34 20.66 8 21 C7.76712992 22.68183948 7.58735834 24.3712416 7.4375 26.0625 C7.35371094 26.98160156 7.26992188 27.90070312 7.18359375 28.84765625 C7.12300781 29.55792969 7.06242187 30.26820312 7 31 C6.34 31 5.68 31 5 31 C4.67 28.03 4.34 25.06 4 22 C3.34 22 2.68 22 2 22 C2 27.28 2 32.56 2 38 C2.99 38 3.98 38 5 38 C5 36.68 5 35.36 5 34 C5.99 34 6.98 34 8 34 C8 35.32 8 36.64 8 38 C9.32 38 10.64 38 12 38 C12 33.38 12 28.76 12 24 C12.66 24 13.32 24 14 24 C13.67 28.62 13.34 33.24 13 38 C13.99 38 14.98 38 16 38 C16 36.68 16 35.36 16 34 C17.32 34.33 18.64 34.66 20 35 C20 35.99 20 36.98 20 38 C20.99 38 21.98 38 23 38 C22.835 37.34 22.67 36.68 22.5 36 C21.65096053 30.90576317 21.03031916 26.45452125 24 22 C24.04898438 23.07121094 24.09796875 24.14242187 24.1484375 25.24609375 C24.22345294 26.64325639 24.2990013 28.0403905 24.375 29.4375 C24.4059375 30.14455078 24.436875 30.85160156 24.46875 31.58007812 C24.57280629 33.39239188 24.77919892 35.19817988 25 37 C25.66 37.33 26.32 37.66 27 38 C27 36.68 27 35.36 27 34 C27.66 34 28.32 34 29 34 C29.33 35.32 29.66 36.64 30 38 C30.66 38 31.32 38 32 38 C31.34 36.02 30.68 34.04 30 32 C30.33 31.67 30.66 31.34 31 31 C31.04092937 28.66702567 31.04241723 26.33294775 31 24 C28.69 22.68 26.38 21.36 24 20 C24.598125 19.71125 25.19625 19.4225 25.8125 19.125 C28.19327792 17.95257974 28.19327792 17.95257974 31 16 C30.7525 14.948125 30.7525 14.948125 30.5 13.875 C30 11 30 11 30.0625 7.8125 C30.32106506 4.86024997 30.32106506 4.86024997 28 3 C25.525 2.505 25.525 2.505 23 2 C23 7.28 23 12.56 23 18 C22.01 17.01 21.02 16.02 20 15 C20.03450708 12.61901169 20.50242556 10.48787222 20.96875 8.15625 C21.24381224 5.89999982 21.24381224 5.89999982 19.53125 4.34375 C19.0259375 3.9003125 18.520625 3.456875 18 3 C18 2.34 18 1.68 18 1 C19.58129029 0.77668801 21.16521089 0.57195356 22.75 0.375 C23.63171875 0.25898437 24.5134375 0.14296875 25.421875 0.0234375 C28.22859878 -0.00207817 29.63384866 0.55156156 32 2 C32.66 1.34 33.32 0.68 34 0 C37.693507 -0.20146402 40.47940432 -0.17353189 44 1 C44 6.61 44 12.22 44 18 C42.14316785 14.28633571 41.48888644 11.7841109 40.875 7.75 C40.62363281 6.13351563 40.62363281 6.13351563 40.3671875 4.484375 C40.24601562 3.66453125 40.12484375 2.8446875 40 2 C38.35 2 36.7 2 35 2 C34.90912109 2.85271484 34.90912109 2.85271484 34.81640625 3.72265625 C34.29823427 8.49781037 33.70756141 13.2492305 33 18 C33.99 18 34.98 18 36 18 C36 17.01 36 16.02 36 15 C36.99 15 37.98 15 39 15 C39 16.32 39 17.64 39 19 C40.32 19 41.64 19 43 19 C43 19.66 43 20.32 43 21 C42.34 21 41.68 21 41 21 C40.67 23.64 40.34 26.28 40 29 C39.34 28.67 38.68 28.34 38 28 C37.375 24.9375 37.375 24.9375 37 22 C36.34 22 35.68 22 35 22 C35.99 27.28 36.98 32.56 38 38 C39.32 38 40.64 38 42 38 C42 38.66 42 39.32 42 40 C39.625 40.125 39.625 40.125 37 40 C36.34 39.34 35.68 38.68 35 38 C34.34 38.66 33.68 39.32 33 40 C29.8671875 40.24291992 29.8671875 40.24291992 25.875 40.23046875 C25.1722998 40.23001053 24.46959961 40.22955231 23.74560547 40.2290802 C22.25942294 40.22605825 20.77324356 40.21817359 19.28710938 40.20581055 C17.00900075 40.18757206 14.73129896 40.18530075 12.453125 40.18554688 C1.29505259 40.14752629 1.29505259 40.14752629 -1 39 C-1 32.73 -1 26.46 -1 20 C-0.01 20 0.98 20 2 20 C1.67257813 19.33613281 1.34515625 18.67226563 1.0078125 17.98828125 C-0.22423374 14.33512088 -0.21959396 10.98944958 -0.125 7.1875 C-0.11597656 6.49462891 -0.10695313 5.80175781 -0.09765625 5.08789062 C-0.07426157 3.39177605 -0.03839641 1.69584129 0 0 Z " fill="#226E3A" transform="translate(19,36)"/>
<path d="M0 0 C1.65 0 3.3 0 5 0 C5.99 3.96 6.98 7.92 8 12 C8.33 8.04 8.66 4.08 9 0 C10.32 0.33 11.64 0.66 13 1 C14.25 3.5625 14.25 3.5625 15 6 C15.33 4.02 15.66 2.04 16 0 C16.99 0 17.98 0 19 0 C19 5.28 19 10.56 19 16 C17.68 16 16.36 16 15 16 C14.67 15.01 14.34 14.02 14 13 C13.67 14.32 13.34 15.64 13 17 C12.01 17 11.02 17 10 17 C10 17.66 10 18.32 10 19 C12.97 19 15.94 19 19 19 C19 20.32 19 21.64 19 23 C17.35 23 15.7 23 14 23 C14 24.98 14 26.96 14 29 C15.32 29 16.64 29 18 29 C18.33 31.31 18.66 33.62 19 36 C18.30132812 35.98839844 17.60265625 35.97679687 16.8828125 35.96484375 C15.97273438 35.95582031 15.06265625 35.94679687 14.125 35.9375 C13.22007813 35.92589844 12.31515625 35.91429687 11.3828125 35.90234375 C8.9831415 35.83750743 8.9831415 35.83750743 7 37 C4.984375 36.85546875 4.984375 36.85546875 3 36 C0.52380958 31.09381675 -0.43080423 25.45685357 0 20 C0.66 20 1.32 20 2 20 C2.66 21.98 3.32 23.96 4 26 C4.99 22.535 4.99 22.535 6 19 C6.66 19 7.32 19 8 19 C8 18.34 8 17.68 8 17 C6.68 17 5.36 17 4 17 C4 15.68 4 14.36 4 13 C3.01 13 2.02 13 1 13 C1 13.99 1 14.98 1 16 C0.01 16 -0.98 16 -2 16 C-2.2396943 10.36718401 -1.38529821 5.45461169 0 0 Z " fill="#619874" transform="translate(54,38)"/>
<path d="M0 0 C6.79988144 3.96659751 12.46742127 9.95260216 14.765625 17.61328125 C15.04982401 20.37948495 14.96500162 22.8220086 14.765625 25.61328125 C11.795625 25.94328125 8.825625 26.27328125 5.765625 26.61328125 C6.095625 20.34328125 6.425625 14.07328125 6.765625 7.61328125 C2.97377117 7.55953844 -0.81732798 7.51973188 -4.609375 7.48828125 C-5.68960938 7.47152344 -6.76984375 7.45476563 -7.8828125 7.4375 C-9.4296875 7.42783203 -9.4296875 7.42783203 -11.0078125 7.41796875 C-11.96091309 7.40749512 -12.91401367 7.39702148 -13.89599609 7.38623047 C-16.4266963 7.38196258 -16.4266963 7.38196258 -18.234375 9.61328125 C-18.80285156 9.28457031 -19.37132813 8.95585938 -19.95703125 8.6171875 C-22.45352701 7.51667393 -23.97036904 7.4337316 -26.671875 7.55078125 C-30.01997696 7.63365506 -32.96768556 7.45629788 -36.234375 6.61328125 C-28.09127479 -5.60136906 -12.209267 -5.67315417 0 0 Z " fill="#F3B135" transform="translate(69.234375,29.38671875)"/>
<path d="M0 0 C0.66 0.66 1.32 1.32 2 2 C4.4582293 2.16671852 4.4582293 2.16671852 7 2 C10.09477914 2 13.10446346 2.23479256 16.1875 2.5 C17.27417969 2.5928125 18.36085937 2.685625 19.48046875 2.78125 C20.72763672 2.88953125 20.72763672 2.88953125 22 3 C18.36881802 8.68358919 13.24897177 10.75078586 6.98046875 12.59375 C-1.53206347 14.33991046 -9.05216119 12.2969244 -16.4375 8 C-19 6 -19 6 -21 3 C-15.68033327 1.69288189 -10.52202519 2.01774803 -5.08203125 2.16015625 C-1.8929416 2.33924764 -1.8929416 2.33924764 0 0 Z " fill="#F3B136" transform="translate(54,73)"/>
<path d="M0 0 C3.17826457 0.42273504 3.17826457 0.42273504 6.375 0.5625 C6.705 0.2325 7.035 -0.0975 7.375 -0.4375 C11.03844611 -0.57318319 13.88115721 -0.60211426 17.375 0.5625 C17.375 6.1725 17.375 11.7825 17.375 17.5625 C15.51816785 13.84883571 14.86388644 11.3466109 14.25 7.3125 C14.08242188 6.23484375 13.91484375 5.1571875 13.7421875 4.046875 C13.62101562 3.22703125 13.49984375 2.4071875 13.375 1.5625 C11.725 1.5625 10.075 1.5625 8.375 1.5625 C8.28412109 2.41521484 8.28412109 2.41521484 8.19140625 3.28515625 C7.67323427 8.06031037 7.08256141 12.8117305 6.375 17.5625 C7.365 17.5625 8.355 17.5625 9.375 17.5625 C9.375 16.5725 9.375 15.5825 9.375 14.5625 C10.365 14.5625 11.355 14.5625 12.375 14.5625 C12.375 15.8825 12.375 17.2025 12.375 18.5625 C13.695 18.5625 15.015 18.5625 16.375 18.5625 C16.375 19.2225 16.375 19.8825 16.375 20.5625 C15.715 20.5625 15.055 20.5625 14.375 20.5625 C14.045 23.2025 13.715 25.8425 13.375 28.5625 C12.715 28.2325 12.055 27.9025 11.375 27.5625 C10.75 24.5 10.75 24.5 10.375 21.5625 C9.715 21.5625 9.055 21.5625 8.375 21.5625 C8.375 24.2025 8.375 26.8425 8.375 29.5625 C7.715 29.8925 7.055 30.2225 6.375 30.5625 C6.189375 29.49 6.00375 28.4175 5.8125 27.3125 C5.14423865 24.87210856 4.6783734 23.8056191 2.68359375 22.20703125 C0.95840249 21.24162119 -0.83099015 20.39306012 -2.625 19.5625 C-2.026875 19.27375 -1.42875 18.985 -0.8125 18.6875 C1.56827792 17.51507974 1.56827792 17.51507974 4.375 15.5625 C4.21 14.86125 4.045 14.16 3.875 13.4375 C3.375 10.5625 3.375 10.5625 3.4375 7.375 C3.69606506 4.42274997 3.69606506 4.42274997 1.375 2.5625 C-0.275 2.2325 -1.925 1.9025 -3.625 1.5625 C-3.625 6.8425 -3.625 12.1225 -3.625 17.5625 C-4.615 16.5725 -5.605 15.5825 -6.625 14.5625 C-6.59049292 12.18151169 -6.12257444 10.05037222 -5.65625 7.71875 C-5.38118776 5.46249982 -5.38118776 5.46249982 -7.09375 3.90625 C-7.5990625 3.4628125 -8.104375 3.019375 -8.625 2.5625 C-8.625 1.9025 -8.625 1.2425 -8.625 0.5625 C-5.53908133 -0.38863932 -3.18972828 -0.4320535 0 0 Z " fill="#126733" transform="translate(45.625,36.4375)"/>
<path d="M0 0 C0.66 0 1.32 0 2 0 C2 0.99 2 1.98 2 3 C3.98 3 5.96 3 8 3 C8 3.33 8 3.66 8 4 C7.03900391 3.98646484 7.03900391 3.98646484 6.05859375 3.97265625 C0.71681545 4.09913923 0.71681545 4.09913923 -3.90625 6.484375 C-5.02162194 7.71549308 -6.12304122 8.9593805 -7.2109375 10.21484375 C-12.69044953 15.68239178 -20.81869214 17.14347566 -28.25 17.1875 C-33.53145657 17.15772854 -37.97386771 16.57682582 -43 15 C-43 14.34 -43 13.68 -43 13 C-43.721875 12.773125 -44.44375 12.54625 -45.1875 12.3125 C-48.56432417 10.73664872 -50.55767039 8.79123384 -53 6 C-53 5.34 -53 4.68 -53 4 C-53.7734375 4.2784375 -53.7734375 4.2784375 -54.5625 4.5625 C-57.90635206 5.16267857 -60.69279457 4.68640113 -64 4 C-64.33 3.34 -64.66 2.68 -65 2 C-49.94387639 2.21070911 -49.94387639 2.21070911 -46.4375 5.375 C-45.633125 6.24125 -44.82875 7.1075 -44 8 C-36.78505733 12.12282438 -29.2842239 13.3485398 -21.18359375 11.28125 C-16.85900818 9.82207011 -13.14061348 8.42282277 -9.75 5.3125 C-6.4646734 2.549839 -4.22118283 2.25327097 0 2 C0 1.34 0 0.68 0 0 Z " fill="#DEE5D6" transform="translate(83,73)"/>
<path d="M0 0 C1.28132813 0.00902344 2.56265625 0.01804688 3.8828125 0.02734375 C4.87023437 0.03894531 5.85765625 0.05054688 6.875 0.0625 C6.875 1.3825 6.875 2.7025 6.875 4.0625 C6.215 4.0625 5.555 4.0625 4.875 4.0625 C4.648125 5.114375 4.42125 6.16625 4.1875 7.25 C2.93521571 11.38505952 1.5843031 13.61435996 -2.125 16.0625 C-6.15985461 16.4728242 -10.08467629 16.35247539 -14.125 16.0625 C-14.91030425 7.07512916 -14.91030425 7.07512916 -11.75 3 C-7.542997 -0.10516888 -5.23145118 -0.04755865 0 0 Z " fill="#ABCE87" transform="translate(102.125,35.9375)"/>
<path d="M0 0 C5.17067905 2.97705764 8.9006624 6.67996826 12.375 11.5 C12.705 10.51 13.035 9.52 13.375 8.5 C16.87102186 14.00623443 19.0763076 17.90770855 18.375 24.5 C21.345 24.5 24.315 24.5 27.375 24.5 C26.385 25.16 25.395 25.82 24.375 26.5 C25.035 27.16 25.695 27.82 26.375 28.5 C26.5 32.125 26.5 32.125 26.375 35.5 C25.385 35.005 25.385 35.005 24.375 34.5 C24.395625 33.695625 24.41625 32.89125 24.4375 32.0625 C24.67133621 29.56645115 24.67133621 29.56645115 23.375 28.5 C21.86030552 28.26807135 20.33745438 28.08784762 18.8125 27.9375 C17.98621094 27.85371094 17.15992188 27.76992188 16.30859375 27.68359375 C15.35146484 27.59271484 15.35146484 27.59271484 14.375 27.5 C14.28863281 26.8709375 14.20226562 26.241875 14.11328125 25.59375 C12.67552852 16.83532969 9.42027348 10.37757563 2.375 4.8203125 C-5.90589881 -0.64637461 -14.4548119 -1.80166492 -24.1640625 -0.0390625 C-26.00146147 0.40892523 -27.81740786 0.9438178 -29.625 1.5 C-28.625 -0.5 -28.625 -0.5 -26.56640625 -1.59375 C-18.12718544 -4.19388178 -7.98338478 -3.71414109 0 0 Z " fill="#DFE1CA" transform="translate(69.625,27.5)"/>
<path d="M0 0 C2.64 0 5.28 0 8 0 C8 4.95 8 9.9 8 15 C7.01 14.67 6.02 14.34 5 14 C5 10.04 5 6.08 5 2 C4.01 2 3.02 2 2 2 C2.11443603 4.0839403 2.24195547 6.16716493 2.375 8.25 C2.44460937 9.41015625 2.51421875 10.5703125 2.5859375 11.765625 C2.96447154 14.7224758 3.35001746 16.54859737 5 19 C7.05000871 19.80528889 7.05000871 19.80528889 9 20 C8.67 20.33 8.34 20.66 8 21 C7.76712992 22.68183948 7.58735834 24.3712416 7.4375 26.0625 C7.35371094 26.98160156 7.26992188 27.90070312 7.18359375 28.84765625 C7.12300781 29.55792969 7.06242187 30.26820312 7 31 C6.34 31 5.68 31 5 31 C4.67 28.03 4.34 25.06 4 22 C3.34 22 2.68 22 2 22 C2.05220703 23.58941406 2.05220703 23.58941406 2.10546875 25.2109375 C2.13360399 26.59894252 2.16090443 27.98696463 2.1875 29.375 C2.22520508 30.42300781 2.22520508 30.42300781 2.26367188 31.4921875 C2.29296875 33.5234375 2.29296875 33.5234375 2 37 C1.01 37.66 0.02 38.32 -1 39 C-1 32.73 -1 26.46 -1 20 C-0.01 20 0.98 20 2 20 C1.67257813 19.33613281 1.34515625 18.67226563 1.0078125 17.98828125 C-0.22423374 14.33512088 -0.21959396 10.98944958 -0.125 7.1875 C-0.11597656 6.49462891 -0.10695313 5.80175781 -0.09765625 5.08789062 C-0.07426157 3.39177605 -0.03839641 1.69584129 0 0 Z " fill="#387D51" transform="translate(19,36)"/>
<path d="M0 0 C4.58778776 3.27201858 8.3917683 5.99641324 10.0625 11.5 C10.041875 12.325 10.02125 13.15 10 14 C9.34 13.29875 8.68 12.5975 8 11.875 C1.12040298 5.03427076 -6.30006924 -0.3128299 -16.25561523 -0.46655273 C-17.33564819 -0.45217163 -17.33564819 -0.45217163 -18.4375 -0.4375 C-19.18523682 -0.43500244 -19.93297363 -0.43250488 -20.70336914 -0.42993164 C-26.40806642 -0.28966753 -30.13902814 0.92469127 -35 4 C-35.66 3.67 -36.32 3.34 -37 3 C-35.3666707 -0.15776998 -33.46233806 -1.48563342 -30.25 -2.75 C-20.33545883 -5.67745832 -8.9443551 -5.45498999 0 0 Z " fill="#7BA98B" transform="translate(73,26)"/>
<path d="M0 0 C0.66 0.33 1.32 0.66 2 1 C2 1.33 2 1.66 2 2 C2.66 2.33 3.32 2.66 4 3 C0.56540173 6.92525516 -1.29534196 8.810387 -6.58203125 9.3984375 C-10.07166296 9.37722393 -13.52046597 9.2606031 -17 9 C-16.85834107 11.39614575 -16.71181159 13.79182897 -16.5625 16.1875 C-16.52318359 16.86103516 -16.48386719 17.53457031 -16.44335938 18.22851562 C-16.21072435 21.89699102 -15.82792989 25.41694206 -15 29 C-15.99 29 -16.98 29 -18 29 C-18 35.27 -18 41.54 -18 48 C-18.33 48 -18.66 48 -19 48 C-19.73823615 37.95998838 -20.16127641 28.00319116 -19.75 17.9375 C-19.71048218 16.64440918 -19.71048218 16.64440918 -19.67016602 15.32519531 C-19.546875 12.90234375 -19.546875 12.90234375 -19 9 C-15.71508627 6.81005752 -14.16904361 6.64722661 -10.3125 6.375 C-9.31863281 6.30023438 -8.32476562 6.22546875 -7.30078125 6.1484375 C-6.54152344 6.09945312 -5.78226563 6.05046875 -5 6 C-5 5.34 -5 4.68 -5 4 C-3.37373596 2.61767557 -1.7074998 1.28062485 0 0 Z " fill="#C1D6C7" transform="translate(36,27)"/>
<path d="M0 0 C0.33 -0.33 0.66 -0.66 1 -1 C2.51928038 -1.07179964 4.04167482 -1.08392007 5.5625 -1.0625 C6.38878906 -1.05347656 7.21507813 -1.04445312 8.06640625 -1.03515625 C8.70449219 -1.02355469 9.34257813 -1.01195312 10 -1 C10 -0.01 10 0.98 10 2 C9.01 2 8.02 2 7 2 C7 5.96 7 9.92 7 14 C6.34 14 5.68 14 5 14 C5 10.04 5 6.08 5 2 C3.68 2 2.36 2 1 2 C1 2.99 1 3.98 1 5 C0.34 5 -0.32 5 -1 5 C-1.33 4.01 -1.66 3.02 -2 2 C-2.66 1.67 -3.32 1.34 -4 1 C-4 2.65 -4 4.3 -4 6 C-2.68 6.66 -1.36 7.32 0 8 C-0.33 10.31 -0.66 12.62 -1 15 C-2.65 14.67 -4.3 14.34 -6 14 C-6.33 12.35 -6.66 10.7 -7 9 C-5 9 -5 9 -3.375 10.5 C-2.92125 10.995 -2.4675 11.49 -2 12 C-2.3609375 11.55269531 -2.721875 11.10539062 -3.09375 10.64453125 C-6.93138937 5.64493997 -6.93138937 5.64493997 -7.3125 2.0625 C-7.209375 1.381875 -7.10625 0.70125 -7 0 C-4.3351451 -1.33242745 -2.85216588 -0.58505967 0 0 Z " fill="#DDE8E0" transform="translate(82,59)"/>
<path d="M0 0 C5 0 5 0 6.8125 1.0625 C8.60385972 3.98524481 8.11811857 6.63362077 8 10 C8.20625 10.763125 8.4125 11.52625 8.625 12.3125 C8.74875 12.869375 8.8725 13.42625 9 14 C8.34 14.66 7.68 15.32 7 16 C4.69 16 2.38 16 0 16 C0 10.72 0 5.44 0 0 Z " fill="#D0DFD4" transform="translate(42,38)"/>
<path d="M0 0 C1.65 0 3.3 0 5 0 C5.50588147 1.91512272 6.00448391 3.83216922 6.5 5.75 C6.7784375 6.81734375 7.056875 7.8846875 7.34375 8.984375 C8 12 8 12 8 16 C7.01 16 6.02 16 5 16 C5 15.01 5 14.02 5 13 C3.68 13 2.36 13 1 13 C1 13.99 1 14.98 1 16 C0.01 16 -0.98 16 -2 16 C-2.2396943 10.36718401 -1.38529821 5.45461169 0 0 Z " fill="#E5EEE8" transform="translate(54,38)"/>
<path d="M0 0 C1.65 0 3.3 0 5 0 C5.50806447 1.72681437 6.00610467 3.45657979 6.5 5.1875 C6.7784375 6.15042969 7.056875 7.11335938 7.34375 8.10546875 C7.96677608 10.85345876 8.12302812 13.19598416 8 16 C7.01 16 6.02 16 5 16 C4.67 15.01 4.34 14.02 4 13 C3.01 12.67 2.02 12.34 1 12 C1 13.32 1 14.64 1 16 C0.01 16 -0.98 16 -2 16 C-2.2396943 10.36718401 -1.38529821 5.45461169 0 0 Z " fill="#D2E0D6" transform="translate(34,58)"/>
<path d="M0 0 C0.99 0.33 1.98 0.66 3 1 C4.1875 3.5625 4.1875 3.5625 5 6 C5.33 4.02 5.66 2.04 6 0 C6.99 0 7.98 0 9 0 C9 5.28 9 10.56 9 16 C7.68 16 6.36 16 5 16 C4.34 14.35 3.68 12.7 3 11 C2.67 12.65 2.34 14.3 2 16 C1.34 16 0.68 16 0 16 C0 10.72 0 5.44 0 0 Z " fill="#E4EDE7" transform="translate(64,38)"/>
<path d="M0 0 C1.11375 0.1546875 1.11375 0.1546875 2.25 0.3125 C2.25 0.9725 2.25 1.6325 2.25 2.3125 C4.56 1.6525 6.87 0.9925 9.25 0.3125 C9.25 0.9725 9.25 1.6325 9.25 2.3125 C6.94 2.9725 4.63 3.6325 2.25 4.3125 C1.14155081 7.63784757 1.40545644 9.93432575 2.25 13.3125 C-0.72 13.3125 -3.69 13.3125 -6.75 13.3125 C-7.23403361 6.1730042 -7.23403361 6.1730042 -5.0625 2.3125 C-2.75 0.3125 -2.75 0.3125 0 0 Z " fill="#79AD3F" transform="translate(95.75,37.6875)"/>
<path d="M0 0 C0.99 0.33 1.98 0.66 3 1 C3 1.99 3 2.98 3 4 C3.66 4 4.32 4 5 4 C5 3.01 5 2.02 5 1 C6.32 1 7.64 1 9 1 C9 4.96 9 8.92 9 13 C9.66 13 10.32 13 11 13 C11 9.04 11 5.08 11 1 C11.33 1 11.66 1 12 1 C12 5.29 12 9.58 12 14 C12.66 14.33 13.32 14.66 14 15 C14 11.04 14 7.08 14 3 C14.66 3.33 15.32 3.66 16 4 C15.67 7.96 15.34 11.92 15 16 C12.36 16 9.72 16 7 16 C7 15.01 7 14.02 7 13 C6.34 13 5.68 13 5 13 C4.731875 12.05125 4.46375 11.1025 4.1875 10.125 C3.25013412 6.74732727 3.25013412 6.74732727 0 5 C-0.1875 2.375 -0.1875 2.375 0 0 Z " fill="#548F69" transform="translate(78,60)"/>
<path d="M0 0 C3.12492251 -0.05791844 6.24970766 -0.09356746 9.375 -0.125 C10.26445313 -0.14175781 11.15390625 -0.15851562 12.0703125 -0.17578125 C12.92109375 -0.18222656 13.771875 -0.18867187 14.6484375 -0.1953125 C15.82672119 -0.21102295 15.82672119 -0.21102295 17.02880859 -0.22705078 C19 0 19 0 21 2 C21.125 4.625 21.125 4.625 21 7 C20.01 7.33 19.02 7.66 18 8 C18 11.96 18 15.92 18 20 C16.02 20 14.04 20 12 20 C13.32 19.67 14.64 19.34 16 19 C16 14.71 16 10.42 16 6 C16.66 6 17.32 6 18 6 C18 5.01 18 4.02 18 3 C15.03 3 12.06 3 9 3 C8.67 3.66 8.34 4.32 8 5 C5.5625 4.625 5.5625 4.625 3 4 C2.67 3.34 2.34 2.68 2 2 C1.34 2 0.68 2 0 2 C0 1.34 0 0.68 0 0 Z " fill="#236D3C" transform="translate(74,55)"/>
<path d="M0 0 C2.97 0.495 2.97 0.495 6 1 C8.23083668 4.34625502 8.16613388 4.76618219 7.5625 8.5 C7.06314726 11.65380677 6.95993353 12.87980059 8 16 C7.01 16 6.02 16 5 16 C4.67 14.68 4.34 13.36 4 12 C3.34 12 2.68 12 2 12 C2 13.32 2 14.64 2 16 C1.34 16 0.68 16 0 16 C0 10.72 0 5.44 0 0 Z " fill="#C9DBCF" transform="translate(33,38)"/>
<path d="M0 0 C0.99 0 1.98 0 3 0 C3.33 3.96 3.66 7.92 4 12 C4.66 12 5.32 12 6 12 C6.33 8.04 6.66 4.08 7 0 C7.99 0 8.98 0 10 0 C10.05449838 1.72880982 10.09301688 3.45812712 10.125 5.1875 C10.14820313 6.15042969 10.17140625 7.11335938 10.1953125 8.10546875 C9.9913544 11.12812778 9.26874632 13.26769985 8 16 C3.54676754 16.3610729 3.54676754 16.3610729 1.34375 14.90625 C-0.65709853 12.06783697 -0.28913696 9.73427756 -0.1875 6.3125 C-0.16042969 5.13300781 -0.13335938 3.95351563 -0.10546875 2.73828125 C-0.07066406 1.83464844 -0.03585938 0.93101563 0 0 Z " fill="#DFE9E2" transform="translate(21,38)"/>
<path d="M0 0 C0.66 0 1.32 0 2 0 C2.33 3.3 2.66 6.6 3 10 C3.99 10 4.98 10 6 10 C6 6.7 6 3.4 6 0 C6.99 0 7.98 0 9 0 C9 4.95 9 9.9 9 15 C8.01 15 7.02 15 6 15 C6 14.01 6 13.02 6 12 C5.01 12 4.02 12 3 12 C3 13.32 3 14.64 3 16 C2.01 16 1.02 16 0 16 C0 10.72 0 5.44 0 0 Z " fill="#EFF4F0" transform="translate(21,58)"/>
<path d="M0 0 C1.670625 0.7425 1.670625 0.7425 3.375 1.5 C8.30521096 3.15648808 12.97672694 3.30410665 18.125 3.3125 C18.8886084 3.31765625 19.6522168 3.3228125 20.43896484 3.328125 C25.30818016 3.26911698 29.37892144 2.5383166 34 1 C33 4 33 4 31.390625 4.94921875 C22.01285638 8.18352216 12.41858254 7.95484943 3 5 C3 4.34 3 3.68 3 3 C2.34 3 1.68 3 1 3 C0.67 2.01 0.34 1.02 0 0 Z " fill="#5A926C" transform="translate(37,83)"/>
<path d="M0 0 C2.64 0 5.28 0 8 0 C8 0.99 8 1.98 8 3 C6.35 3 4.7 3 3 3 C3 4.98 3 6.96 3 9 C4.32 9 5.64 9 7 9 C7.33 11.31 7.66 13.62 8 16 C5.36 16 2.72 16 0 16 C0 10.72 0 5.44 0 0 Z " fill="#E9F0EB" transform="translate(65,58)"/>
<path d="M0 0 C1.95825873 -0.02694851 3.91662226 -0.04637218 5.875 -0.0625 C6.96554688 -0.07410156 8.05609375 -0.08570313 9.1796875 -0.09765625 C12 0 12 0 14 1 C14 6.94 14 12.88 14 19 C13.01 18.67 12.02 18.34 11 18 C11 12.72 11 7.44 11 2 C10.01 2 9.02 2 8 2 C8 4.64 8 7.28 8 10 C6 8 6 8 5.125 5.5 C4.21791378 2.8604924 4.21791378 2.8604924 1.875 1.6875 C1.25625 1.460625 0.6375 1.23375 0 1 C0 0.67 0 0.34 0 0 Z " fill="#4A7E42" transform="translate(62,36)"/>
<path d="M0 0 C0.66 0 1.32 0 2 0 C2.66 1.98 3.32 3.96 4 6 C4.66 4.02 5.32 2.04 6 0 C6.66 0 7.32 0 8 0 C8.21755666 5.4389165 8.10428384 9.87080814 6 15 C4.68 14.67 3.36 14.34 2 14 C0.66416101 9.15758367 -0.25328119 5.06562383 0 0 Z " fill="#CEDED3" transform="translate(54,58)"/>
<path d="M0 0 C0.33 0 0.66 0 1 0 C1.33 4.62 1.66 9.24 2 14 C2.99 14.33 3.98 14.66 5 15 C5 13.68 5 12.36 5 11 C5.99 11 6.98 11 8 11 C8 12.32 8 13.64 8 15 C9.32 15 10.64 15 12 15 C12 10.38 12 5.76 12 1 C12.66 1 13.32 1 14 1 C13.67 5.62 13.34 10.24 13 15 C13.99 15.33 14.98 15.66 16 16 C10.72 16 5.44 16 0 16 C0 10.72 0 5.44 0 0 Z " fill="#0F612C" transform="translate(19,59)"/>
<path d="M0 0 C0.33 0 0.66 0 1 0 C1 2.31 1 4.62 1 7 C3.97 7 6.94 7 10 7 C9.01 7.66 8.02 8.32 7 9 C7.66 9.66 8.32 10.32 9 11 C9.125 14.625 9.125 14.625 9 18 C8.34 17.67 7.68 17.34 7 17 C7.020625 16.195625 7.04125 15.39125 7.0625 14.5625 C7.29633621 12.06645115 7.29633621 12.06645115 6 11 C4.48530552 10.76807135 2.96245438 10.58784762 1.4375 10.4375 C0.61121094 10.35371094 -0.21507813 10.26992188 -1.06640625 10.18359375 C-1.70449219 10.12300781 -2.34257813 10.06242187 -3 10 C-3 7.36 -3 4.72 -3 2 C-2.01 2.33 -1.02 2.66 0 3 C0 2.01 0 1.02 0 0 Z " fill="#F1F4EC" transform="translate(87,45)"/>
<path d="M0 0 C0.99 0 1.98 0 3 0 C3 1.32 3 2.64 3 4 C4.32 4 5.64 4 7 4 C7 4.66 7 5.32 7 6 C6.34 6 5.68 6 5 6 C4.67 8.64 4.34 11.28 4 14 C3.34 13.67 2.68 13.34 2 13 C1.375 9.9375 1.375 9.9375 1 7 C0.34 7 -0.32 7 -1 7 C-1.33 8.32 -1.66 9.64 -2 11 C-2.24042276 6.91281305 -1.42258812 3.82320557 0 0 Z " fill="#1A6D3D" transform="translate(55,51)"/>
<path d="M0 0 C0.33 0 0.66 0 1 0 C1.02690844 2.62506802 1.04679404 5.24986173 1.0625 7.875 C1.07087891 8.62136719 1.07925781 9.36773437 1.08789062 10.13671875 C1.11328125 15.7734375 1.11328125 15.7734375 0 18 C0.66 18 1.32 18 2 18 C1.67 18.99 1.34 19.98 1 21 C0.34 20.34 -0.32 19.68 -1 19 C-3.20250992 18.53993654 -3.20250992 18.53993654 -5.625 18.375 C-6.44226563 18.30023438 -7.25953125 18.22546875 -8.1015625 18.1484375 C-8.72804688 18.09945312 -9.35453125 18.05046875 -10 18 C-10 17.34 -10 16.68 -10 16 C-9.01 16 -8.02 16 -7 16 C-7 14.35 -7 12.7 -7 11 C-6.34 11.33 -5.68 11.66 -5 12 C-5 12.99 -5 13.98 -5 15 C-3.35 15 -1.7 15 0 15 C0 10.05 0 5.1 0 0 Z " fill="#0A612D" transform="translate(74,39)"/>
<path d="M0 0 C6.625 -0.125 6.625 -0.125 10 1 C10 6.61 10 12.22 10 18 C8.14316785 14.28633571 7.48888644 11.7841109 6.875 7.75 C6.70742188 6.67234375 6.53984375 5.5946875 6.3671875 4.484375 C6.24601562 3.66453125 6.12484375 2.8446875 6 2 C4.02 2.33 2.04 2.66 0 3 C0 2.01 0 1.02 0 0 Z " fill="#0F632F" transform="translate(53,36)"/>
<path d="M0 0 C0.33 0 0.66 0 1 0 C1 2.31 1 4.62 1 7 C-2.30994713 8.65497356 -5.99123 8.10084335 -9.625 8.0625 C-10.82769531 8.05573242 -10.82769531 8.05573242 -12.0546875 8.04882812 C-14.03649006 8.03703168 -16.01825433 8.01909605 -18 8 C-18.33 7.01 -18.66 6.02 -19 5 C-16.75006641 4.97292861 -14.50003905 4.95357171 -12.25 4.9375 C-10.99703125 4.92589844 -9.7440625 4.91429688 -8.453125 4.90234375 C-5.71463499 4.97978973 -3.58119707 5.17219185 -1 6 C-0.67 4.02 -0.34 2.04 0 0 Z " fill="#266E39" transform="translate(82,68)"/>
<path d="M0 0 C0.66 0 1.32 0 2 0 C1.67 3.3 1.34 6.6 1 10 C1.99 10 2.98 10 4 10 C4.66 8.02 5.32 6.04 6 4 C6.33 4 6.66 4 7 4 C7 8 7 12 7 16 C6.34 16 5.68 16 5 16 C4.67 14.68 4.34 13.36 4 12 C3.34 12 2.68 12 2 12 C2 13.32 2 14.64 2 16 C1.34 16 0.68 16 0 16 C0 10.72 0 5.44 0 0 Z " fill="#E7EFEA" transform="translate(44,58)"/>
<path d="M0 0 C2.50298434 2.93828597 3.46930939 5.17902761 4 9 C3.01 9 2.02 9 1 9 C1 15.27 1 21.54 1 28 C0.67 28 0.34 28 0 28 C-0.19697084 25.02119476 -0.38277673 22.04235614 -0.5625 19.0625 C-0.61857422 18.23169922 -0.67464844 17.40089844 -0.73242188 16.54492188 C-1.06275821 10.88515939 -0.76547933 5.61918533 0 0 Z " fill="#DBE7DE" transform="translate(17,47)"/>
<path d="M0 0 C0.66 0 1.32 0 2 0 C3.17571451 3.67410785 3.07366746 7.16929183 3 11 C3.99 11.33 4.98 11.66 6 12 C5.01 12 4.02 12 3 12 C3 13.32 3 14.64 3 16 C2.01 16 1.02 16 0 16 C0 10.72 0 5.44 0 0 Z " fill="#E4EDE7" transform="translate(21,58)"/>
<path d="M0 0 C2.64 0 5.28 0 8 0 C8 0.99 8 1.98 8 3 C7.01 3 6.02 3 5 3 C5 6.96 5 10.92 5 15 C4.34 15 3.68 15 3 15 C2.95101562 14.14535156 2.90203125 13.29070312 2.8515625 12.41015625 C2.77679688 11.30542969 2.70203125 10.20070313 2.625 9.0625 C2.55539063 7.96035156 2.48578125 6.85820313 2.4140625 5.72265625 C2.27742188 4.82417969 2.14078125 3.92570312 2 3 C1.34 2.67 0.68 2.34 0 2 C0 1.34 0 0.68 0 0 Z " fill="#F3F7F4" transform="translate(84,58)"/>
<path d="M0 0 C6.27 0 12.54 0 19 0 C18.67 0.99 18.34 1.98 18 3 C15.03 3 12.06 3 9 3 C8.67 3.66 8.34 4.32 8 5 C5.5625 4.625 5.5625 4.625 3 4 C2.67 3.34 2.34 2.68 2 2 C1.34 2 0.68 2 0 2 C0 1.34 0 0.68 0 0 Z " fill="#4F8654" transform="translate(74,55)"/>
<path d="M0 0 C2.34601486 2.13274079 3.86264449 4.02537789 5 7 C5.125 9.75 5.125 9.75 5 12 C3.14453125 11.74609375 3.14453125 11.74609375 1 11 C-0.30078125 9.22265625 -0.30078125 9.22265625 -1.3125 7.0625 C-1.65925781 6.35222656 -2.00601563 5.64195313 -2.36328125 4.91015625 C-2.57339844 4.27980469 -2.78351563 3.64945313 -3 3 C-2.67 2.34 -2.34 1.68 -2 1 C-1.34 1.33 -0.68 1.66 0 2 C0 1.34 0 0.68 0 0 Z " fill="#F0F1E7" transform="translate(82,36)"/>
<path d="M0 0 C1.9375 0.3125 1.9375 0.3125 4 1 C5 4 5 4 3.5625 7.1875 C2.7890625 8.5796875 2.7890625 8.5796875 2 10 C1.01 10 0.02 10 -1 10 C-1.125 2.25 -1.125 2.25 0 0 Z " fill="#CEDED3" transform="translate(46,58)"/>
<path d="M0 0 C1.32 0 2.64 0 4 0 C4 0.66 4 1.32 4 2 C3.34 2 2.68 2 2 2 C2 4.64 2 7.28 2 10 C2.99 10 3.98 10 5 10 C4.67 11.32 4.34 12.64 4 14 C4 13.34 4 12.68 4 12 C3.34 12 2.68 12 2 12 C2 13.32 2 14.64 2 16 C1.34 16 0.68 16 0 16 C0 10.72 0 5.44 0 0 Z " fill="#EBF2ED" transform="translate(33,38)"/>
<path d="M0 0 C5 0 5 0 6.8125 1.125 C8.49106106 3.77535957 8.20450238 5.93246424 8 9 C7.01 8.67 6.02 8.34 5 8 C5 6.68 5 5.36 5 4 C4.01 3.67 3.02 3.34 2 3 C2 5.31 2 7.62 2 10 C1.67 10 1.34 10 1 10 C0.67 6.7 0.34 3.4 0 0 Z " fill="#E2EBE5" transform="translate(42,38)"/>
<path d="M0 0 C2.64 0 5.28 0 8 0 C8 0.99 8 1.98 8 3 C5.625 3.125 5.625 3.125 3 3 C2.34 2.34 1.68 1.68 1 1 C1 5.62 1 10.24 1 15 C3.31 15 5.62 15 8 15 C8 15.33 8 15.66 8 16 C5.36 16 2.72 16 0 16 C0 10.72 0 5.44 0 0 Z " fill="#D4E2D9" transform="translate(65,58)"/>
<path d="M0 0 C1.98 0.66 3.96 1.32 6 2 C5.01 2.33 4.02 2.66 3 3 C3 7.95 3 12.9 3 18 C2.67 18 2.34 18 2 18 C1.67 14.04 1.34 10.08 1 6 C0.34 7.32 -0.32 8.64 -1 10 C-1.02689216 8.52093108 -1.04634621 7.04172517 -1.0625 5.5625 C-1.07410156 4.73878906 -1.08570313 3.91507813 -1.09765625 3.06640625 C-1 1 -1 1 0 0 Z " fill="#458860" transform="translate(41,55)"/>
<path d="M0 0 C0.66 0.33 1.32 0.66 2 1 C2 1.33 2 1.66 2 2 C2.66 2.33 3.32 2.66 4 3 C-0.82029598 7.82029598 -0.82029598 7.82029598 -4.1796875 8.33203125 C-6.1228691 8.31474316 -8.06392229 8.16690325 -10 8 C-7 6 -7 6 -5 6 C-5 5.34 -5 4.68 -5 4 C-3.37373596 2.61767557 -1.7074998 1.28062485 0 0 Z " fill="#E4E8D9" transform="translate(36,27)"/>
<path d="M0 0 C0.99 0 1.98 0 3 0 C3 3.96 3 7.92 3 12 C2.01 12.33 1.02 12.66 0 13 C0 8.71 0 4.42 0 0 Z " fill="#E6EEE8" transform="translate(21,38)"/>
<path d="M0 0 C2.97 0.495 2.97 0.495 6 1 C5.67 1.66 5.34 2.32 5 3 C4.77377919 4.70363822 4.59111527 6.41328701 4.4375 8.125 C4.35371094 9.03507812 4.26992188 9.94515625 4.18359375 10.8828125 C4.12300781 11.58148438 4.06242187 12.28015625 4 13 C3.34 13 2.68 13 2 13 C2 9.7 2 6.4 2 3 C0.35 3.33 -1.3 3.66 -3 4 C-3 3.34 -3 2.68 -3 2 C-2.01 2 -1.02 2 0 2 C0 1.34 0 0.68 0 0 Z " fill="#075F29" transform="translate(22,54)"/>
<path d="M0 0 C1.65 0 3.3 0 5 0 C7.42857143 6.28571429 7.42857143 6.28571429 6 10 C5.67 9.01 5.34 8.02 5 7 C4.67 8.32 4.34 9.64 4 11 C3.01 11 2.02 11 1 11 C0.63076923 5.58461538 0.63076923 5.58461538 2.5 2.625 C2.995 2.08875 3.49 1.5525 4 1 C2.68 0.67 1.36 0.34 0 0 Z " fill="#97B9A1" transform="translate(54,38)"/>
<path d="M0 0 C1.32 0.33 2.64 0.66 4 1 C4 2.65 4 4.3 4 6 C-2.27 6 -8.54 6 -15 6 C-15 5.67 -15 5.34 -15 5 C-10.05 5 -5.1 5 0 5 C0 3.35 0 1.7 0 0 Z " fill="#367947" transform="translate(35,70)"/>
<path d="M0 0 C0.33 0 0.66 0 1 0 C1 4.62 1 9.24 1 14 C0.01 14.33 -0.98 14.66 -2 15 C-1.85816304 13.24967156 -1.71136571 11.49974466 -1.5625 9.75 C-1.48128906 8.77546875 -1.40007813 7.8009375 -1.31640625 6.796875 C-1.04925416 4.43538247 -0.64628032 2.28098935 0 0 Z " fill="#065E28" transform="translate(63,58)"/>
<path d="M0 0 C0.33 0 0.66 0 1 0 C1 4.62 1 9.24 1 14 C0.01 14 -0.98 14 -2 14 C-2.33 12.02 -2.66 10.04 -3 8 C-2.01 8 -1.02 8 0 8 C0 5.36 0 2.72 0 0 Z " fill="#FAFCFB" transform="translate(71,39)"/>
<path d="M0 0 C1.32 0 2.64 0 4 0 C5.60725635 3.21451269 5.05748185 6.43612536 5 10 C4.01 10.495 4.01 10.495 3 11 C2.87625 9.865625 2.7525 8.73125 2.625 7.5625 C2.41875 6.386875 2.2125 5.21125 2 4 C1.34 3.67 0.68 3.34 0 3 C0 2.01 0 1.02 0 0 Z " fill="#EDF3EF" transform="translate(35,58)"/>
<path d="M0 0 C0.99 0 1.98 0 3 0 C3.66 0.66 4.32 1.32 5 2 C4.96712417 4.72869407 4.43602229 7.2966618 4 10 C3.01 9.67 2.02 9.34 1 9 C0.67 6.03 0.34 3.06 0 0 Z " fill="#317745" transform="translate(49,37)"/>
<path d="M0 0 C-0.66 0 -1.32 0 -2 0 C-2 0.66 -2 1.32 -2 2 C-3.28650706 2.69710731 -4.57940665 3.38242876 -5.875 4.0625 C-6.95394531 4.63677734 -6.95394531 4.63677734 -8.0546875 5.22265625 C-8.69664063 5.47917969 -9.33859375 5.73570313 -10 6 C-10.66 5.67 -11.32 5.34 -12 5 C-9.04307137 0.33116532 -5.46817975 -2.02525176 0 0 Z " fill="#97BBA1" transform="translate(48,24)"/>
<path d="M0 0 C0.66 0 1.32 0 2 0 C2.99 2.64 3.98 5.28 5 8 C4.01 8.495 4.01 8.495 3 9 C3 10.65 3 12.3 3 14 C1.20724134 10.88089144 0.65709282 8.32317572 0.375 4.75 C0.30023438 3.85796875 0.22546875 2.9659375 0.1484375 2.046875 C0.09945312 1.37140625 0.05046875 0.6959375 0 0 Z " fill="#CBDCD0" transform="translate(54,58)"/>
<path d="M0 0 C0.33 0.99 0.66 1.98 1 3 C-0.6875 5.0625 -0.6875 5.0625 -3 7 C-5.75 6.75 -5.75 6.75 -8 6 C-7 4 -7 4 -4 3 C-3.67 2.34 -3.34 1.68 -3 1 C-2.01 0.67 -1.02 0.34 0 0 Z " fill="#9FC774" transform="translate(104,44)"/>
<path d="M0 0 C-4.49087169 2.99391446 -6.70517963 3.11177109 -12.125 3.0625 C-13.40632813 3.05347656 -14.68765625 3.04445313 -16.0078125 3.03515625 C-17.48894531 3.01775391 -17.48894531 3.01775391 -19 3 C-19 2.67 -19 2.34 -19 2 C-16.95928485 1.66089006 -14.91737379 1.32897296 -12.875 1 C-11.73804688 0.814375 -10.60109375 0.62875 -9.4296875 0.4375 C-6.23862398 0.03043951 -3.21182209 -0.07809902 0 0 Z " fill="#EBEDE0" transform="translate(69,84)"/>
<path d="M0 0 C0.33 0.99 0.66 1.98 1 3 C1.99 3.33 2.98 3.66 4 4 C4 6.31 4 8.62 4 11 C3.01 11 2.02 11 1 11 C0.67 7.37 0.34 3.74 0 0 Z " fill="#93B69D" transform="translate(34,58)"/>
<path d="M0 0 C3.39192363 0.59283621 5.2107757 1.76743189 7.75 4.0625 C8.67039062 4.88427734 8.67039062 4.88427734 9.609375 5.72265625 C10.29773438 6.35494141 10.29773438 6.35494141 11 7 C10.34 7.66 9.68 8.32 9 9 C7.49704815 7.69088122 5.99770689 6.37761608 4.5 5.0625 C3.6646875 4.33160156 2.829375 3.60070313 1.96875 2.84765625 C1.3190625 2.23792969 0.669375 1.62820312 0 1 C0 0.67 0 0.34 0 0 Z " fill="#EAE7D2" transform="translate(69,29)"/>
<path d="M0 0 C1.4835001 0.42257276 2.96176424 0.86356322 4.4375 1.3125 C5.67306641 1.67794922 5.67306641 1.67794922 6.93359375 2.05078125 C7.61550781 2.36402344 8.29742187 2.67726563 9 3 C9.33 3.99 9.66 4.98 10 6 C7.69 5.67 5.38 5.34 3 5 C3 4.34 3 3.68 3 3 C2.34 3 1.68 3 1 3 C0.67 2.01 0.34 1.02 0 0 Z " fill="#74A383" transform="translate(37,83)"/>
<path d="M0 0 C1.32 0.33 2.64 0.66 4 1 C3.67 2.65 3.34 4.3 3 6 C2.01 6.33 1.02 6.66 0 7 C0 4.69 0 2.38 0 0 Z " fill="#438257" transform="translate(44,41)"/>
<path d="M0 0 C0.66 0 1.32 0 2 0 C2.33 1.98 2.66 3.96 3 6 C4.32 6 5.64 6 7 6 C7 6.66 7 7.32 7 8 C5.35 8 3.7 8 2 8 C0.23537317 4.91190305 0 3.76687864 0 0 Z " fill="#1B6832" transform="translate(54,68)"/>
<path d="M0 0 C1.32 0.33 2.64 0.66 4 1 C4 3.31 4 5.62 4 8 C3.01 8 2.02 8 1 8 C0.67 5.36 0.34 2.72 0 0 Z " fill="#F3F7F4" transform="translate(56,65)"/>
<path d="M0 0 C0.66 0.33 1.32 0.66 2 1 C2.625 4.0625 2.625 4.0625 3 7 C1.02 7 -0.96 7 -3 7 C-3 6.34 -3 5.68 -3 5 C-2.01 5 -1.02 5 0 5 C0 3.35 0 1.7 0 0 Z " fill="#106633" transform="translate(67,50)"/>
<path d="M0 0 C0.66 0.33 1.32 0.66 2 1 C1.6875 2.9375 1.6875 2.9375 1 5 C0.01 5.33 -0.98 5.66 -2 6 C-2.66 5.67 -3.32 5.34 -4 5 C-4 4.01 -4 3.02 -4 2 C-2.68 2 -1.36 2 0 2 C0 1.34 0 0.68 0 0 Z " fill="#9CBCA5" transform="translate(49,48)"/>
<path d="M0 0 C0.33 1.98 0.66 3.96 1 6 C0.01 6 -0.98 6 -2 6 C-2 5.01 -2 4.02 -2 3 C-3.32 2.67 -4.64 2.34 -6 2 C-2.25 0 -2.25 0 0 0 Z " fill="#D9E5DD" transform="translate(61,48)"/>
<path d="M0 0 C0.33 0 0.66 0 1 0 C1 3.96 1 7.92 1 12 C0.01 11.01 -0.98 10.02 -2 9 C-1.85546875 6.73828125 -1.85546875 6.73828125 -1.1875 4.3125 C-0.97480469 3.50425781 -0.76210938 2.69601563 -0.54296875 1.86328125 C-0.36378906 1.24839844 -0.18460938 0.63351563 0 0 Z " fill="#186733" transform="translate(41,42)"/>
<path d="M0 0 C-1.45255699 3.82946843 -3.42895561 5.12050295 -7 7 C-6.61402985 4.20171644 -6.19863427 3.1794116 -4.0625 1.25 C-2 0 -2 0 0 0 Z " fill="#A1C0A8" transform="translate(78,79)"/>
<path d="M0 0 C1.32 0.33 2.64 0.66 4 1 C-1.14285714 5.42857143 -1.14285714 5.42857143 -5 6 C-5 5.34 -5 4.68 -5 4 C-4.360625 3.71125 -3.72125 3.4225 -3.0625 3.125 C-0.84793921 2.17176549 -0.84793921 2.17176549 0 0 Z " fill="#FAB63E" transform="translate(71,77)"/>
<path d="M0 0 C0.66 0 1.32 0 2 0 C2 0.99 2 1.98 2 3 C3.98 3 5.96 3 8 3 C8 3.33 8 3.66 8 4 C4.37 4.33 0.74 4.66 -3 5 C-2.67 4.01 -2.34 3.02 -2 2 C-1.34 2 -0.68 2 0 2 C0 1.34 0 0.68 0 0 Z " fill="#CFDED3" transform="translate(83,73)"/>
<path d="M0 0 C2.7972908 2.06756277 3.02692273 3.14440371 3.6875 6.6875 C3.790625 7.780625 3.89375 8.87375 4 10 C1.2027092 7.93243723 0.97307727 6.85559629 0.3125 3.3125 C0.209375 2.219375 0.10625 1.12625 0 0 Z " fill="#B9D0BE" transform="translate(82,36)"/>
<path d="M0 0 C3.375 -0.125 3.375 -0.125 7 0 C7.66 0.66 8.32 1.32 9 2 C8.34 2 7.68 2 7 2 C6.67 2.99 6.34 3.98 6 5 C6 4.01 6 3.02 6 2 C4.02 2.33 2.04 2.66 0 3 C0 2.01 0 1.02 0 0 Z " fill="#1D6B37" transform="translate(53,36)"/>
<path d="M0 0 C-0.33 0.99 -0.66 1.98 -1 3 C-4.5625 4.1875 -4.5625 4.1875 -8 5 C-7.67 4.01 -7.34 3.02 -7 2 C-4.56723614 0.81480735 -2.71982714 0 0 0 Z " fill="#679B78" transform="translate(71,84)"/>
<path d="M0 0 C0.99 0.33 1.98 0.66 3 1 C3 2.65 3 4.3 3 6 C2.01 6.33 1.02 6.66 0 7 C0 4.69 0 2.38 0 0 Z " fill="#2E7444" transform="translate(35,41)"/>
<path d="M0 0 C3.3 0 6.6 0 10 0 C6.71299843 1.64350079 4.52069985 2.41321669 1 3 C0.67 2.01 0.34 1.02 0 0 Z " fill="#8EBF57" transform="translate(97,37)"/>
<path d="M0 0 C3.96 0 7.92 0 12 0 C12 0.33 12 0.66 12 1 C4.61538462 3.21538462 4.61538462 3.21538462 1.5 2.125 C1.005 1.75375 0.51 1.3825 0 1 C0 0.67 0 0.34 0 0 Z " fill="#266D35" transform="translate(62,36)"/>
<path d="M0 0 C0.66 0 1.32 0 2 0 C2.28875 0.61875 2.5775 1.2375 2.875 1.875 C3.93720042 4.13325765 3.93720042 4.13325765 6 6 C4.35 5.67 2.7 5.34 1 5 C0.67 3.35 0.34 1.7 0 0 Z " fill="#CBDCD1" transform="translate(75,68)"/>
<path d="M0 0 C0.99 0 1.98 0 3 0 C3 1.65 3 3.3 3 5 C2.01 5.33 1.02 5.66 0 6 C0 4.02 0 2.04 0 0 Z " fill="#226E3D" transform="translate(46,61)"/>
</svg>
